# xmcd CD database file
#
# Track frame offsets:
#	150
#	66047
#	84305
#	103627
#	127087
#	146977
#	172127
#
# Disc length: 2682 seconds
#
# Revision: 1
# Processed by: cddbd v1.5PL3 Copyright (c) Steve Scherf et al.
# Submitted via: CDex 1.50Beta7
#
DISCID=650a7807
DTITLE=BUMP OF CHICKEN - FLAME VEIN
DYEAR=1999
DGENRE=Rock
TTITLE0=ガラスのブルース
TTITLE1=くだらない唄
TTITLE2=アルエ
TTITLE3=リトルブレイバー
TTITLE4=ノーヒットノーラン
TTITLE5=とっておきの唄
TTITLE6=ナイフ
EXTD=YEAR: 1999
EXTT0=
EXTT1=
EXTT2=
EXTT3=
EXTT4=
EXTT5=
EXTT6=
PLAYORDER=
